<svg width="109" height="109" viewBox="0 0 109 109" fill="none" xmlns="http://www.w3.org/2000/svg">
<path fill-rule="evenodd" clip-rule="evenodd" d="M52.8506 1.72467C54.5801 0.753887 56.7096 0.753887 58.4368 1.72467C66.9828 6.52266 92.7 20.9652 101.249 25.7631C102.978 26.7314 104.043 28.525 104.043 30.4669C104.043 40.0629 104.043 68.9453 104.043 78.5413C104.043 80.4828 102.978 82.2765 101.249 83.2476C92.7026 88.0456 66.9854 102.488 58.4368 107.286C56.707 108.257 54.5775 108.257 52.8506 107.286C44.3043 102.488 18.5871 88.0456 10.0386 83.2476C8.3116 82.2765 7.24658 80.4854 7.24658 78.5438C7.24658 68.9476 7.24658 40.0654 7.24658 30.4694C7.24658 28.5276 8.3116 26.7339 10.0411 25.7631C18.5846 20.9652 44.3069 6.52266 52.8506 1.72467Z" fill="#283593"/>
<path fill-rule="evenodd" clip-rule="evenodd" d="M8.02122 81.0158C7.34366 80.1086 7.24658 79.2474 7.24658 78.0882C7.24658 68.5481 7.24658 39.8314 7.24658 30.2888C7.24658 28.3575 8.30905 26.5737 10.0335 25.6106C18.5491 20.8407 44.1797 6.48227 52.695 1.70983C54.4197 0.744155 56.7555 0.764309 58.4799 1.73026C66.9955 6.50015 92.5395 20.7363 101.055 25.5062C101.743 25.8936 102.268 26.3597 102.736 26.974L8.02122 81.0158Z" fill="#5C6BC0"/>
<path fill-rule="evenodd" clip-rule="evenodd" d="M55.6446 18.833C75.3274 18.833 91.3066 34.8171 91.3066 54.5061C91.3066 74.1948 75.3274 90.1789 55.6446 90.1789C35.9619 90.1789 19.9829 74.1948 19.9829 54.5061C19.9829 34.8171 35.9619 18.833 55.6446 18.833ZM55.6446 36.6696C65.4847 36.6696 73.4755 44.6603 73.4755 54.5061C73.4755 64.3493 65.4847 72.3424 55.6446 72.3424C45.8046 72.3424 37.8138 64.3493 37.8138 54.5061C37.8138 44.6603 45.802 36.6696 55.6446 36.6696Z" fill="white"/>
<path fill-rule="evenodd" clip-rule="evenodd" d="M102.731 26.9985C104.045 28.2293 104.02 30.0843 104.02 31.5445C104.02 41.2142 103.938 68.7183 104.043 78.3881C104.053 79.3972 103.719 80.4596 103.22 81.2598L54.6079 54.5051L102.731 26.9985Z" fill="#3949AB"/>
<path fill-rule="evenodd" clip-rule="evenodd" d="M73.4756 46.8613H78.5702V62.1497H73.4756V46.8613ZM91.3067 46.8613H96.4011V62.1497H91.3067V46.8613Z" fill="white"/>
<path fill-rule="evenodd" clip-rule="evenodd" d="M68.3813 51.9575H83.6649V57.0536H68.3813V51.9575ZM86.2122 51.9575H101.496V57.0536H86.2122V51.9575Z" fill="white"/>
</svg>
