<svg width="109" height="109" viewBox="0 0 109 109" fill="none" xmlns="http://www.w3.org/2000/svg">
<path d="M48.0775 57.646C48.0775 57.646 45.3346 59.315 49.9853 59.7922C55.59 60.5075 58.571 60.3883 64.7715 59.1961C64.7715 59.1961 66.4409 60.2691 68.7066 61.1036C54.7552 67.0651 37.1063 60.7457 48.0778 57.646H48.0775ZM46.2889 49.8962C46.2889 49.8962 43.3079 52.1613 47.9583 52.6388C54.0399 53.2349 58.8097 53.3538 67.0373 51.6848C67.0373 51.6848 68.1105 52.8769 69.8991 53.473C53.0858 58.4808 34.2442 53.9499 46.2884 49.8965L46.2889 49.8962ZM79.201 63.4868C79.201 63.4868 81.228 65.1559 76.9353 66.4676C68.9456 68.8523 43.4283 69.5676 36.2726 66.4676C33.7684 65.3949 38.5383 63.8445 40.0881 63.6061C41.6383 63.2484 42.4731 63.2484 42.4731 63.2484C39.7308 61.3409 24.2286 67.1829 34.6029 68.8523C63.1019 73.5021 86.5931 66.8255 79.2007 63.4866L79.201 63.4868ZM49.39 41.7876C49.39 41.7876 36.3926 44.8873 44.7397 45.9606C48.3171 46.4374 55.3524 46.3182 61.9109 45.841C67.2766 45.3642 72.6428 44.4101 72.6428 44.4101C72.6428 44.4101 70.735 45.2447 69.4231 46.0792C56.1872 49.5368 30.7888 47.9867 38.0617 44.4101C44.2622 41.4294 49.3898 41.787 49.3898 41.787L49.39 41.7876ZM72.6425 54.7833C85.9976 47.8681 79.7971 41.1915 75.5043 42.026C74.4311 42.2642 73.9542 42.5026 73.9542 42.5026C73.9542 42.5026 74.3119 41.7873 75.1464 41.5489C83.6126 38.5681 90.2906 50.4906 72.4041 55.1407C72.4041 55.1407 72.5233 55.0212 72.6425 54.783V54.7833ZM50.7015 73.6213C63.5796 74.4558 83.2527 73.1444 83.733 67.0637C83.733 67.0637 82.779 69.4484 73.1203 71.2366C62.1499 73.2636 48.5564 73.0249 40.569 71.7135C40.569 71.7135 42.2383 73.1444 50.7046 73.621L50.7015 73.6213Z" fill="#4E7896"/>
<mask id="mask0_167_632" style="mask-type:luminance" maskUnits="userSpaceOnUse" x="26" y="2" width="54" height="105">
<path d="M26.8125 2.44189H79.7138V106.529H26.8125V2.44189Z" fill="white"/>
</mask>
<g mask="url(#mask0_167_632)">
<path d="M61.7768 2.44189C61.7768 2.44189 69.17 9.95296 54.7414 21.2796C43.175 30.4603 52.1181 35.7065 54.7414 41.6677C47.9446 35.587 43.0555 30.2219 46.3944 25.2144C51.2841 17.8222 64.7595 14.2477 61.7776 2.44189H61.7768ZM57.9635 36.6608C61.4214 40.5953 57.0094 44.1724 57.0094 44.1724C57.0094 44.1724 65.8333 39.6418 61.779 34.038C58.0824 28.6729 55.2206 26.05 70.7221 17.1101C70.7221 17.1101 46.2775 23.1908 57.9629 36.6634L57.9635 36.6608ZM49.1376 100.684V89.0001C49.1376 86.0191 47.4683 83.9923 43.2947 83.9923C40.9098 83.9923 38.8828 84.5884 37.0939 85.3015L37.6903 87.4477C38.9997 86.9708 40.6714 86.4939 42.4602 86.4939C44.7259 86.4939 45.7989 87.4477 45.7989 89.3555V90.9053H44.6067C38.8828 90.9053 36.2594 93.0516 36.2594 96.5089C36.2594 99.3704 38.048 101.04 41.2677 101.04C43.295 101.04 44.8452 100.086 46.2763 98.8936L46.5148 100.682H49.1382L49.1376 100.684ZM45.7986 96.8691C44.6064 97.9424 43.2947 98.5385 42.102 98.5385C40.5519 98.5385 39.5981 97.5844 39.5981 95.9154C39.5981 94.246 40.5521 93.0538 44.3677 93.0538H45.7989V96.8666L45.7986 96.8691ZM60.3467 100.684H56.1732L51.1655 84.35H54.7429L57.8431 94.3652L58.5584 97.3457C60.1086 93.0535 61.3013 88.6422 61.7782 84.35H65.3553C64.4013 89.7154 62.7319 95.5574 60.3476 100.684H60.3467ZM79.6638 100.684V89.0001C79.6638 86.0191 77.9945 83.9923 73.821 83.9923C71.436 83.9923 69.409 84.5884 67.6202 85.3015L68.0974 87.4477C69.5285 86.9708 71.1976 86.4939 72.9865 86.4939C75.2522 86.4939 76.3251 87.4477 76.3251 89.3555V90.9053H75.133C69.4093 90.9053 66.7859 93.0516 66.7859 96.5089C66.7859 99.3704 68.4553 101.04 71.6748 101.04C73.8213 101.04 75.3714 100.086 76.802 98.8936L77.0405 100.682H79.6638V100.684ZM76.3251 96.8691C75.133 97.9424 73.8213 98.5385 72.6285 98.5385C71.0784 98.5385 70.1246 97.5844 70.1246 95.9154C70.1246 94.246 71.0787 93.0538 74.8942 93.0538H76.3254V96.8666L76.3251 96.8691ZM32.5636 103.427C31.6096 104.858 30.1787 105.93 28.3898 106.527L26.8389 104.62C28.0311 103.905 29.2238 102.832 29.7007 101.878C30.1776 101.043 30.2971 99.8507 30.2971 97.1087V78.5091H33.8745V96.8705C33.8745 100.566 33.5168 101.997 32.5651 103.428L32.5636 103.427Z" fill="#F58219"/>
</g>
</svg>
