<svg width="109" height="109" viewBox="0 0 109 109" fill="none" xmlns="http://www.w3.org/2000/svg">
<mask id="mask0_167_658" style="mask-type:luminance" maskUnits="userSpaceOnUse" x="3" y="3" width="103" height="103">
<path d="M3.3374 3.33789H105.688V105.689H3.3374V3.33789Z" fill="white"/>
</mask>
<g mask="url(#mask0_167_658)">
<path d="M3.3374 3.33789H105.688V105.689H3.3374V3.33789Z" fill="#FFD600"/>
</g>
<path d="M70.2583 79.9498C72.2257 83.1455 74.3637 86.2074 78.8926 86.2074C82.6968 86.2074 84.6925 84.3169 84.6925 81.7012C84.6925 78.5709 82.6284 77.4593 78.4435 75.637L76.1491 74.6588C69.5274 71.8501 65.1236 68.3303 65.1236 60.8956C65.1236 54.0436 70.369 48.8295 78.5656 48.8295C84.4025 48.8295 88.5961 50.8508 91.6211 56.1447L84.4737 60.7136C82.9014 57.9046 81.2011 56.7987 78.5656 56.7987C75.876 56.7987 74.1732 58.4959 74.1732 60.7136C74.1732 63.4542 75.8789 64.5632 79.8165 66.2604L82.1109 67.2386C89.9152 70.5619 94.3163 73.9566 94.3163 81.5874C94.3163 89.8098 87.8226 94.316 79.1057 94.316C70.5793 94.316 65.7376 90.0372 63.0424 84.7405L70.2583 79.9498ZM37.3181 80.1829C38.7567 82.7589 40.9432 84.7405 44.0875 84.7405C47.0955 84.7405 48.827 83.552 48.827 78.9319V48.8267H58.3029V80.3878C58.3029 89.9602 52.7504 94.316 44.6419 94.316C37.3153 94.316 32.0271 89.3519 29.8721 84.7405L37.3181 80.1829Z" fill="#000001"/>
</svg>
