<svg width="109" height="109" viewBox="0 0 109 109" fill="none" xmlns="http://www.w3.org/2000/svg">
<path fill-rule="evenodd" clip-rule="evenodd" d="M51.4906 3.04886C53.1776 2.1022 55.2548 2.1022 56.9392 3.04886C65.2746 7.72763 90.3579 21.8116 98.6955 26.4904C100.382 27.4345 101.421 29.1839 101.421 31.0772C101.421 40.435 101.421 68.6002 101.421 77.9577C101.421 79.8513 100.382 81.6004 98.6955 82.547C90.3602 87.2261 65.2771 101.31 56.9392 105.989C55.2522 106.935 53.1753 106.935 51.4906 105.989C43.1552 101.31 18.0722 87.2261 9.73424 82.547C8.04985 81.6004 7.01123 79.8536 7.01123 77.9602C7.01123 68.6024 7.01123 40.4376 7.01123 31.0797C7.01123 29.1864 8.04985 27.437 9.7368 26.4904C18.0696 21.8116 43.1578 7.72763 51.4906 3.04886Z" fill="#283593"/>
<path fill-rule="evenodd" clip-rule="evenodd" d="M7.76657 80.3698C7.10575 79.4853 7.01123 78.6454 7.01123 77.5148C7.01123 68.2117 7.01123 40.2081 7.01123 30.9028C7.01123 29.0191 8.0473 27.28 9.72942 26.3407C18.035 21.6892 43.0338 7.68722 51.3393 3.03343C53.0212 2.0916 55.2994 2.11147 56.9815 3.0533C65.2871 7.70482 90.2013 21.5873 98.5068 26.2388C99.1776 26.6163 99.6894 27.071 100.147 27.67L7.76657 80.3698Z" fill="#5C6BC0"/>
<path fill-rule="evenodd" clip-rule="evenodd" d="M54.2163 19.7314C73.4139 19.7314 88.9989 35.3184 88.9989 54.5183C88.9989 73.7182 73.4139 89.3055 54.2163 89.3055C35.0189 89.3055 19.4336 73.7182 19.4336 54.5183C19.4336 35.3184 35.0189 19.7314 54.2163 19.7314ZM54.2163 37.1249C63.8137 37.1249 71.6075 44.9173 71.6075 54.5183C71.6075 64.1172 63.8137 71.9118 54.2163 71.9118C44.6189 71.9118 36.8251 64.1172 36.8251 54.5183C36.8251 44.9173 44.6163 37.1249 54.2163 37.1249Z" fill="white"/>
<path fill-rule="evenodd" clip-rule="evenodd" d="M100.141 27.6943C101.424 28.8945 101.399 30.7032 101.399 32.127C101.399 41.5569 101.319 68.3777 101.421 77.8074C101.431 78.7915 101.105 79.8276 100.619 80.6079L53.2051 54.5174L100.141 27.6943Z" fill="#3949AB"/>
</svg>
