<svg width="109" height="109" viewBox="0 0 109 109" fill="none" xmlns="http://www.w3.org/2000/svg">
<path fill-rule="evenodd" clip-rule="evenodd" d="M47.4743 2.107C49.1769 1.15183 51.2729 1.15183 52.9729 2.107C61.3849 6.82721 86.699 21.0353 95.1133 25.7555C96.8158 26.7081 97.8638 28.4728 97.8638 30.3831C97.8638 39.8233 97.8638 68.2374 97.8638 77.6778C97.8638 79.5878 96.8158 81.3526 95.1133 82.3077C86.7013 87.0279 61.3874 101.236 52.9729 105.956C51.2706 106.911 49.1743 106.911 47.4743 105.956C39.0623 101.236 13.7485 87.0279 5.33393 82.3077C3.63393 81.3526 2.58594 79.5904 2.58594 77.6803C2.58594 68.2399 2.58594 39.8258 2.58594 30.3854C2.58594 28.4754 3.63393 26.7106 5.33648 25.7555C13.7459 21.0353 39.0649 6.82721 47.4743 2.107Z" fill="#283593"/>
<path fill-rule="evenodd" clip-rule="evenodd" d="M3.34809 80.1111C2.68131 79.2187 2.58594 78.3714 2.58594 77.2308C2.58594 67.8455 2.58594 39.5946 2.58594 30.2067C2.58594 28.3066 3.63137 26.5521 5.32882 25.6046C13.7108 20.9119 38.9394 6.78645 47.3214 2.09122C49.0188 1.14116 51.318 1.16131 53.0155 2.11137C61.3977 6.80377 86.5409 20.8091 94.9229 25.5015C95.5998 25.8827 96.1165 26.3415 96.5777 26.9455L3.34809 80.1111Z" fill="#5C6BC0"/>
<path fill-rule="evenodd" clip-rule="evenodd" d="M50.2253 18.9375C69.5995 18.9375 85.3279 34.6622 85.3279 54.0318C85.3279 73.4014 69.5995 89.1261 50.2253 89.1261C30.8514 89.1261 15.123 73.4014 15.123 54.0318C15.123 34.6622 30.8514 18.9375 50.2253 18.9375ZM50.2253 36.4845C59.911 36.4845 67.7766 44.3459 67.7766 54.0318C67.7766 63.7155 59.911 71.5791 50.2253 71.5791C40.5396 71.5791 32.674 63.7155 32.674 54.0318C32.674 44.3459 40.5371 36.4845 50.2253 36.4845Z" fill="white"/>
<path fill-rule="evenodd" clip-rule="evenodd" d="M96.5728 26.9697C97.8666 28.1806 97.8416 30.0055 97.8416 31.4418C97.8416 40.9549 97.7612 68.0128 97.864 77.5259C97.8742 78.5185 97.5458 79.5639 97.0542 80.3511L49.2046 54.0301L96.5728 26.9697Z" fill="#3949AB"/>
<path fill-rule="evenodd" clip-rule="evenodd" d="M75.2983 44.0034H77.8056V64.0571H75.2983V44.0034ZM82.8205 44.0034H85.3278V64.0571H82.8205V44.0034Z" fill="white"/>
<path fill-rule="evenodd" clip-rule="evenodd" d="M70.2837 56.5377H90.3422V59.0444H70.2837V56.5377ZM70.2837 49.0176H90.3422V51.5243H70.2837V49.0176Z" fill="white"/>
</svg>
